<?xml version="1.0" encoding="utf-8"?>
<!-- Generator: Adobe Illustrator 18.0.0, SVG Export Plug-In . SVG Version: 6.00 Build 0)  -->
<!DOCTYPE svg PUBLIC "-//W3C//DTD SVG 1.1//EN" "http://www.w3.org/Graphics/SVG/1.1/DTD/svg11.dtd">
<svg version="1.1" id="Layer_1" xmlns="http://www.w3.org/2000/svg" xmlns:xlink="http://www.w3.org/1999/xlink" x="0px" y="0px"
	 viewBox="0 0 64 64" enable-background="new 0 0 64 64" xml:space="preserve">
<g>
	<g>
		<g>
			<path fill="#316CFF" d="M32,0c17.7,0,32,14.3,32,32S49.7,64,32,64S0,49.7,0,32S14.3,0,32,0z"/>
		</g>
	</g>
	<g>
		<g>
			<path fill="#FFFFFF" d="M41.8,10l8.2,7.8v34.8c0,0.8-0.7,1.4-1.5,1.4h-33c-0.8,0-1.5-0.6-1.5-1.4V11.4c0-0.8,0.7-1.4,1.5-1.4
				H41.8z"/>
		</g>
	</g>
	<g>
		<g>
			<polygon fill="#D3D5DD" points="50,17.8 41.8,17.8 41.8,10 			"/>
		</g>
	</g>
	<g>
		<g>
			<path fill="#D3D5DD" d="M45,21c0.5,0,1,0.5,1,1s-0.5,1-1,1H19c-0.6,0-1-0.5-1-1s0.4-1,1-1H45z"/>
		</g>
	</g>
	<g>
		<g>
			<path fill="#D3D5DD" d="M45,26c0.5,0,1,0.5,1,1s-0.5,1-1,1H19c-0.6,0-1-0.5-1-1s0.4-1,1-1H45z"/>
		</g>
	</g>
	<g>
		<g>
			<path d="M41.2,44l1.8,0.5c-0.2,0.4-0.4,0.8-0.6,1.1c-0.2,0.3-0.5,0.5-0.7,0.7c-0.5,0.4-1.2,0.6-2.1,0.6c-0.7,0-1.2-0.1-1.7-0.4
				c-0.5-0.2-0.8-0.6-1.1-1c-0.3-0.4-0.5-0.9-0.6-1.4c-0.1-0.5-0.2-1.1-0.2-1.6c0-0.6,0.1-1.1,0.2-1.6c0.1-0.5,0.3-1,0.6-1.4
				c0.3-0.4,0.6-0.7,1.1-1c0.5-0.2,1-0.4,1.7-0.4c0.7,0,1.3,0.2,1.9,0.5c0.3,0.2,0.5,0.4,0.7,0.7c0.2,0.3,0.4,0.7,0.5,1.2l-1.7,0.4
				c-0.1-0.4-0.3-0.7-0.5-0.9c-0.2-0.2-0.5-0.3-0.9-0.3c-0.2,0-0.4,0-0.6,0.1c-0.2,0.1-0.3,0.2-0.4,0.4c-0.1,0.2-0.2,0.3-0.3,0.5
				c-0.1,0.2-0.1,0.4-0.2,0.6c0,0.2-0.1,0.4-0.1,0.6c0,0.2,0,0.4,0,0.6c0,0.9,0.1,1.6,0.4,2.1c0.2,0.5,0.7,0.7,1.2,0.7
				c0.2,0,0.4,0,0.6-0.1c0.2-0.1,0.3-0.1,0.4-0.3c0.1-0.1,0.2-0.2,0.3-0.4C41.1,44.3,41.2,44.2,41.2,44z"/>
		</g>
	</g>
	<g>
		<g>
			<path fill="#D3D5DD" d="M36.8,16c0.5,0,1,0.5,1,1s-0.5,1-1,1H19c-0.6,0-1-0.5-1-1s0.4-1,1-1H36.8z"/>
		</g>
	</g>
	<g>
		<g>
			<path d="M35.5,40.7c0.1,0.5,0.2,1.1,0.2,1.7c0,1.4-0.3,2.5-0.9,3.2c-0.6,0.8-1.6,1.2-2.7,1.2c-0.7,0-1.3-0.1-1.7-0.3
				c-0.5-0.2-0.9-0.5-1.1-1c-0.3-0.4-0.5-0.9-0.6-1.4c-0.1-0.5-0.2-1.1-0.2-1.7s0.1-1.2,0.2-1.7c0.1-0.5,0.3-1,0.6-1.4
				c0.3-0.4,0.7-0.7,1.1-1c0.5-0.2,1-0.3,1.7-0.3s1.2,0.1,1.7,0.3c0.5,0.2,0.8,0.6,1.1,1C35.1,39.7,35.3,40.2,35.5,40.7z M33.8,42.4
				c0-0.9-0.2-1.7-0.5-2.1c-0.3-0.5-0.7-0.7-1.4-0.7c-0.6,0-1.1,0.2-1.4,0.7c-0.3,0.5-0.5,1.2-0.5,2.1c0,0.9,0.1,1.7,0.5,2.1
				c0.3,0.5,0.7,0.7,1.4,0.7c0.6,0,1.1-0.2,1.4-0.7C33.6,44.1,33.8,43.3,33.8,42.4z"/>
		</g>
	</g>
	<g>
		<g>
			<path d="M27.6,40.6c0.2,0.5,0.2,1.1,0.2,1.8c0,0.7-0.1,1.3-0.2,1.8c-0.2,0.5-0.4,1-0.8,1.3c-0.7,0.7-1.7,1.1-3,1.1H21v-8.6h2.9
				c0.7,0,1.3,0.1,1.8,0.3c0.5,0.2,0.9,0.5,1.2,0.9C27.2,39.7,27.5,40.1,27.6,40.6z M25.9,43.4c0.1-0.3,0.1-0.7,0.1-1
				c0-0.5,0-0.9-0.1-1.2c-0.1-0.3-0.2-0.6-0.4-0.8c-0.3-0.5-0.9-0.7-1.6-0.7h-1v5.4h1c0.4,0,0.8-0.1,1.1-0.2
				c0.3-0.1,0.5-0.3,0.7-0.6S25.8,43.8,25.9,43.4z"/>
		</g>
	</g>
</g>
</svg>
