<?xml version="1.0" encoding="utf-8"?>
<!-- Generator: Adobe Illustrator 23.0.6, SVG Export Plug-In . SVG Version: 6.00 Build 0)  -->
<svg version="1.1" id="Layer_1" xmlns="http://www.w3.org/2000/svg" xmlns:xlink="http://www.w3.org/1999/xlink" x="0px" y="0px"
	 viewBox="0 0 1089.1 345.1" style="enable-background:new 0 0 1089.1 345.1;" xml:space="preserve">
<style type="text/css">
	.st0{fill:#373737;}
	.st1{fill:#4371B4;}
	.st2{fill:#7DB68D;}
	.st3{fill:#CACAC9;}
</style>
<g>
	<g>
		<path class="st0" d="M344.1,106.3h-27.7v79h-19.7v-79h-27.7V90.5h75V106.3z"/>
		<path class="st0" d="M437.1,90.5v94.8h-19.7v-40.8h-41.7v40.8h-19.7V90.5h19.7v40.2h41.7V90.5H437.1z"/>
		<path class="st0" d="M532.5,185.3h-17.7c-3.3,0-5.7-1.3-7.2-3.8l-18-29.1c-0.7-1.1-1.6-2-2.4-2.5c-0.9-0.5-2.2-0.8-4-0.8h-6.7
			v36.1h-19.6V90.5h29.8c6.6,0,12.3,0.7,17,2.1s8.6,3.3,11.6,5.7c3,2.4,5.2,5.3,6.6,8.7c1.4,3.4,2.1,7.1,2.1,11.1
			c0,3.1-0.4,6.1-1.3,8.9c-0.9,2.8-2.2,5.4-3.9,7.7c-1.7,2.3-3.8,4.4-6.3,6.1c-2.5,1.8-5.3,3.2-8.5,4.3c1.3,0.7,2.4,1.5,3.5,2.5
			c1.1,1,2.1,2.1,2.9,3.5L532.5,185.3z M486.6,135.4c3.2,0,5.9-0.4,8.2-1.2c2.3-0.8,4.2-1.9,5.7-3.3c1.5-1.4,2.6-3.1,3.3-5
			c0.7-1.9,1-4,1-6.3c0-4.5-1.5-8-4.5-10.4c-3-2.5-7.5-3.7-13.6-3.7h-10.2v30H486.6z"/>
		<path class="st0" d="M561.5,105.9v24.4h31.6v14.8h-31.6V170h40.6v15.3h-60.3V90.5h60.3v15.3H561.5z"/>
		<path class="st0" d="M636.5,105.9v24.4h31.6v14.8h-31.6V170h40.6v15.3h-60.3V90.5h60.3v15.3H636.5z"/>
		<path class="st0" d="M711.5,105.9v26.2h34.1v15.4h-34.1v37.8h-19.7V90.5h60.3v15.3H711.5z"/>
		<path class="st0" d="M856.4,137.9c0,6.9-1.2,13.3-3.5,19.3c-2.3,5.9-5.6,11-9.9,15.3c-4.2,4.3-9.4,7.7-15.3,10.2
			c-6,2.5-12.6,3.7-19.9,3.7c-7.3,0-13.9-1.2-19.9-3.7c-6-2.5-11.1-5.8-15.3-10.2c-4.3-4.3-7.6-9.4-9.9-15.3
			c-2.3-5.9-3.5-12.3-3.5-19.3s1.2-13.3,3.5-19.2c2.3-5.9,5.6-11,9.9-15.3c4.3-4.3,9.4-7.7,15.3-10.2c6-2.5,12.6-3.7,19.9-3.7
			c7.3,0,13.9,1.2,19.9,3.7c6,2.5,11.1,5.9,15.3,10.2c4.2,4.3,7.5,9.4,9.9,15.3C855.2,124.6,856.4,131,856.4,137.9z M836.3,137.9
			c0-5-0.7-9.4-2-13.4c-1.3-3.9-3.2-7.3-5.6-10.1c-2.5-2.8-5.4-4.9-8.9-6.3c-3.5-1.5-7.5-2.2-11.9-2.2s-8.4,0.7-12,2.2
			c-3.5,1.5-6.5,3.6-9,6.3c-2.5,2.8-4.3,6.1-5.6,10.1c-1.3,3.9-2,8.4-2,13.4c0,5,0.7,9.5,2,13.4c1.3,3.9,3.2,7.3,5.6,10
			c2.5,2.7,5.5,4.8,9,6.3c3.5,1.5,7.5,2.2,12,2.2s8.4-0.7,11.9-2.2c3.5-1.5,6.5-3.6,8.9-6.3c2.5-2.7,4.3-6.1,5.6-10
			C835.7,147.4,836.3,142.9,836.3,137.9z"/>
		<path class="st0" d="M927,169.4v15.9h-56.2V90.5h19.6v78.8H927z"/>
		<path class="st0" d="M1023.9,137.9c0,6.9-1.2,13.3-3.5,19.1c-2.3,5.8-5.6,10.8-9.9,15c-4.2,4.2-9.4,7.4-15.3,9.8
			c-6,2.4-12.6,3.5-19.9,3.5h-36.4V90.5h36.4c7.3,0,13.9,1.2,19.9,3.5c6,2.4,11.1,5.6,15.3,9.8c4.2,4.2,7.5,9.2,9.9,15
			C1022.7,124.7,1023.9,131,1023.9,137.9z M1003.8,137.9c0-5-0.7-9.4-2-13.4c-1.3-4-3.2-7.3-5.6-10.1c-2.4-2.7-5.4-4.9-8.9-6.3
			c-3.5-1.5-7.5-2.2-11.9-2.2h-16.7V170h16.7c4.4,0,8.4-0.7,11.9-2.2c3.5-1.5,6.5-3.6,8.9-6.3c2.4-2.8,4.3-6.1,5.6-10.1
			C1003.1,147.4,1003.8,142.9,1003.8,137.9z"/>
	</g>
	<g>
		<path class="st0" d="M334.7,215v48.7h-1.7c-0.3,0-0.5-0.1-0.7-0.2c-0.2-0.1-0.4-0.3-0.6-0.5l-31.6-42.3c0.1,0.7,0.1,1.3,0.1,2v41
			h-3.1V215h1.8c0.3,0,0.6,0,0.7,0.1c0.2,0.1,0.4,0.3,0.6,0.5l31.6,42.2c-0.1-0.7-0.1-1.3-0.1-2V215H334.7z"/>
		<path class="st0" d="M416.6,260.8l-0.1,2.9h-29.2V215h29.2v2.9h-25.6v19.7h21.3v2.9h-21.3v20.3H416.6z"/>
		<path class="st0" d="M495,218h-17.1v45.7h-3.5V218h-17.2v-3H495V218z"/>
		<path class="st0" d="M599,215l-15.3,48.7h-3.2l-14.4-42.3c-0.2-0.6-0.3-1.2-0.5-1.8c-0.1,0.6-0.3,1.2-0.5,1.8l-14.4,42.3h-3.1
			L532.3,215h2.9c0.7,0,1.1,0.3,1.3,0.9l12.3,40c0.3,0.9,0.5,2,0.7,3.1c0.1-0.6,0.2-1.2,0.3-1.7c0.1-0.5,0.3-1,0.4-1.5l13.8-40
			c0.1-0.3,0.3-0.5,0.5-0.7c0.2-0.2,0.5-0.3,0.8-0.3h1c0.3,0,0.6,0.1,0.8,0.3c0.2,0.2,0.4,0.4,0.5,0.7l13.8,40
			c0.2,0.4,0.3,0.9,0.4,1.4c0.1,0.5,0.2,1.1,0.4,1.7c0.1-0.6,0.2-1.1,0.3-1.6c0.1-0.5,0.2-1,0.3-1.5l12.3-40
			c0.1-0.3,0.2-0.5,0.5-0.7c0.2-0.2,0.5-0.3,0.8-0.3H599z"/>
		<path class="st0" d="M687.8,239.3c0,3.8-0.6,7.2-1.7,10.2c-1.1,3.1-2.7,5.7-4.8,7.8c-2,2.2-4.5,3.8-7.3,5c-2.9,1.2-6,1.8-9.4,1.8
			c-3.4,0-6.6-0.6-9.4-1.8s-5.3-2.9-7.3-5c-2-2.2-3.6-4.8-4.8-7.8c-1.1-3.1-1.7-6.5-1.7-10.2c0-3.7,0.6-7.1,1.7-10.2
			c1.1-3.1,2.7-5.7,4.8-7.8c2-2.2,4.5-3.8,7.3-5c2.8-1.2,6-1.8,9.4-1.8c3.4,0,6.6,0.6,9.4,1.8c2.9,1.2,5.3,2.9,7.3,5
			c2,2.2,3.6,4.8,4.8,7.9C687.3,232.2,687.8,235.6,687.8,239.3z M684.2,239.3c0-3.4-0.5-6.4-1.4-9.2c-0.9-2.7-2.3-5-4-6.9
			c-1.7-1.9-3.8-3.3-6.2-4.3c-2.4-1-5.1-1.5-8-1.5c-2.9,0-5.5,0.5-8,1.5c-2.4,1-4.5,2.4-6.2,4.3s-3.1,4.2-4,6.9
			c-1,2.7-1.4,5.8-1.4,9.2c0,3.4,0.5,6.5,1.4,9.2s2.3,5,4,6.9c1.7,1.9,3.8,3.3,6.2,4.3c2.4,1,5.1,1.5,8,1.5c2.9,0,5.6-0.5,8-1.5
			c2.4-1,4.5-2.4,6.2-4.3c1.7-1.9,3.1-4.2,4-6.9C683.7,245.8,684.2,242.8,684.2,239.3z"/>
		<path class="st0" d="M770.8,263.7h-3c-0.4,0-0.7-0.1-1-0.2c-0.3-0.1-0.5-0.4-0.7-0.7l-15.6-19.8c-0.2-0.3-0.4-0.5-0.6-0.7
			c-0.2-0.2-0.4-0.3-0.7-0.4s-0.5-0.2-0.9-0.2c-0.3,0-0.7-0.1-1.2-0.1h-6.4v22h-3.5V215h12.5c5.6,0,9.8,1.1,12.6,3.3
			c2.8,2.2,4.2,5.4,4.2,9.6c0,1.9-0.3,3.6-1,5.1c-0.6,1.5-1.6,2.9-2.8,4c-1.2,1.2-2.7,2.1-4.4,2.8c-1.7,0.7-3.6,1.2-5.8,1.5
			c0.6,0.3,1,0.8,1.5,1.4L770.8,263.7z M749.2,239.1c2.2,0,4.1-0.3,5.8-0.8c1.7-0.5,3.2-1.3,4.3-2.2s2.1-2.1,2.7-3.5
			c0.6-1.4,0.9-2.9,0.9-4.6c0-3.5-1.1-6-3.4-7.7c-2.3-1.7-5.6-2.5-9.9-2.5h-8.9v21.3H749.2z"/>
		<path class="st0" d="M820.8,237.5h2.9c0.4,0,0.8,0,1.1-0.1c0.3,0,0.6-0.1,0.9-0.2s0.5-0.2,0.7-0.4c0.2-0.2,0.5-0.4,0.7-0.6
			l19.7-20.2c0.3-0.4,0.7-0.7,1-0.8c0.3-0.1,0.7-0.2,1.2-0.2h2.8l-21.3,21.9c-0.4,0.5-0.8,0.8-1.2,1.1c-0.3,0.3-0.7,0.5-1.1,0.6
			c0.5,0.1,0.9,0.4,1.3,0.6c0.4,0.3,0.8,0.7,1.2,1.1l22.4,23.4h-2.9c-0.6,0-1-0.1-1.3-0.2s-0.5-0.4-0.8-0.7l-20.6-21.1
			c-0.3-0.3-0.5-0.5-0.7-0.7s-0.5-0.3-0.7-0.5c-0.3-0.1-0.6-0.2-0.9-0.3c-0.4-0.1-0.8-0.1-1.4-0.1h-3.1v23.5h-3.5V215h3.5V237.5z"/>
	</g>
</g>
<g>
	<g>
		<path class="st1" d="M225.8,135.5H33.7V91.6h169.7c12.4,0,22.4,10,22.4,22.4V135.5L225.8,135.5z"/>
		<path class="st1" d="M203.4,91.6H33.7v43.9h192.1V114C225.8,101.6,215.8,91.6,203.4,91.6L203.4,91.6z"/>
	</g>
	<polygon class="st2" points="225.7,199.4 89.9,199.4 89.9,155.5 225.7,155.5 225.7,199.4 	"/>
	<path class="st3" d="M203.3,263.2H33.7v-43.9h192.1v21.4C225.8,253.2,215.7,263.2,203.3,263.2L203.3,263.2z"/>
</g>
</svg>
